<svg width="27" height="25" viewBox="0 0 27 25" fill="none" xmlns="http://www.w3.org/2000/svg">
<path d="M13.4374 16.4682C17.6484 16.4682 21.2441 17.3181 21.2441 20.7193C21.2441 24.1191 17.6715 25 13.4374 25C9.22645 25 5.63084 24.1501 5.63084 20.7503C5.63084 17.3491 9.20337 16.4682 13.4374 16.4682ZM20.1308 14.4609C20.137 14.4212 20.1904 14.4196 20.2306 14.4188C21.8232 14.3891 23.519 14.6661 24.1505 14.8634C25.5055 15.2025 26.3967 15.8949 26.7659 16.901C27.078 17.727 27.078 18.6853 26.7659 19.51C26.2011 21.0705 24.3802 21.5715 23.6725 21.701C23.5264 21.7291 23.4088 21.5673 23.4242 21.3801C23.7857 17.0558 20.9099 15.0055 20.1659 14.5341C20.1341 14.513 20.1275 14.4806 20.1308 14.4609V14.4609ZM6.83051 14.4207C6.85468 14.4249 6.86677 14.4474 6.86897 14.4601C6.87227 14.4812 6.86567 14.5122 6.8349 14.5347C6.08985 15.0061 3.21402 17.0564 3.57556 21.3793C3.59094 21.5678 3.47446 21.7283 3.3283 21.7015C2.62061 21.5721 0.799727 21.0711 0.234891 19.5105C-0.0782969 18.6845 -0.0782969 17.7276 0.234891 16.9016C0.604122 15.8954 1.49423 15.2031 2.84918 14.8625C3.48984 14.6641 5.21952 14.3827 6.83051 14.4207ZM13.4374 0C16.3045 0 18.6034 2.94104 18.6034 6.61383C18.6034 10.2852 16.3045 13.2291 13.4374 13.2291C10.5704 13.2291 8.2715 10.2852 8.2715 6.61383C8.2715 2.94104 10.5704 0 13.4374 0ZM20.4505 1.10296C23.2198 1.10296 25.3945 4.43943 24.6538 8.15584C24.1538 10.6578 22.3439 12.3197 20.3275 12.2522C20.1253 12.2452 19.9264 12.2212 19.7341 12.179C19.5945 12.1481 19.5242 11.9468 19.6033 11.7977C20.3725 10.3483 20.811 8.60473 20.811 6.73316C20.811 4.77997 20.3319 2.95906 19.5 1.46602C19.4736 1.41958 19.4538 1.34781 19.4802 1.29434C19.5022 1.25072 19.5428 1.2282 19.5813 1.21694C19.8615 1.14377 20.1494 1.10296 20.4505 1.10296ZM6.54864 1.10282C6.84974 1.10282 7.13765 1.14363 7.41897 1.2168C7.45633 1.22806 7.49809 1.25198 7.52007 1.2942C7.54535 1.34767 7.52666 1.41944 7.50029 1.46588C6.66842 2.95892 6.1893 4.77983 6.1893 6.73302C6.1893 8.60459 6.62776 10.3481 7.39699 11.7975C7.47611 11.9467 7.40578 12.1479 7.26622 12.1789C7.07282 12.2225 6.87501 12.245 6.67282 12.2521C4.65633 12.3196 2.84643 10.6577 2.34643 8.1557C1.60467 4.43929 3.7794 1.10282 6.54864 1.10282Z" fill="black"/>
</svg>
