<svg width="27" height="27" viewBox="0 0 27 27" fill="none" xmlns="http://www.w3.org/2000/svg">
<path d="M13.229 1C6.47511 1 1 6.47511 1 13.229C1 19.9828 6.47511 25.458 13.229 25.458C19.9828 25.458 25.458 19.9828 25.458 13.229C25.458 6.47511 19.9828 1 13.229 1Z" stroke="#888888" stroke-width="2" stroke-linecap="round" stroke-linejoin="round"/>
<path d="M3.77722 20.9892C3.77722 20.9892 6.50309 17.5092 13.229 17.5092C19.955 17.5092 22.6809 20.9892 22.6809 20.9892" stroke="#888888" stroke-width="2" stroke-linecap="round" stroke-linejoin="round"/>
<path d="M13.229 13.229C15.2552 13.229 16.8977 11.5865 16.8977 9.5603C16.8977 7.53414 15.2552 5.8916 13.229 5.8916C11.2028 5.8916 9.5603 7.53414 9.5603 9.5603C9.5603 11.5865 11.2028 13.229 13.229 13.229Z" stroke="#888888" stroke-width="2" stroke-linecap="round" stroke-linejoin="round"/>
</svg>
