<svg width="30" height="30" viewBox="0 0 30 30" fill="none" xmlns="http://www.w3.org/2000/svg">
<path d="M4.375 8.12476C4.375 6.95991 4.375 6.37772 4.56531 5.91788C4.69099 5.61457 4.87519 5.33898 5.10739 5.10687C5.33959 4.87475 5.61524 4.69065 5.91859 4.56507C6.37797 4.37476 6.96016 4.37476 8.125 4.37476H9.68781C10.8527 4.37476 11.4348 4.37476 11.8942 4.56507C12.1976 4.69065 12.4732 4.87475 12.7054 5.10687C12.9376 5.33898 13.1218 5.61457 13.2475 5.91788C13.4378 6.37726 13.4378 6.95991 13.4378 8.12476V9.6871C13.4378 10.8519 13.4378 11.4346 13.2475 11.894C12.9936 12.5065 12.5068 12.9931 11.8942 13.2468C11.4348 13.4371 10.8527 13.4371 9.68781 13.4371H8.125C6.96016 13.4371 6.37797 13.4371 5.91859 13.2468C5.61524 13.1212 5.33959 12.9371 5.10739 12.705C4.87519 12.4729 4.69099 12.1973 4.56531 11.894C4.375 11.4346 4.375 10.8519 4.375 9.6871V8.12476Z" fill="#2B3151"/>
<path fill-rule="evenodd" clip-rule="evenodd" d="M8.10281 3.75H9.70969C10.2731 3.75 10.7278 3.75 11.0981 3.77531C11.4783 3.80109 11.8148 3.85594 12.1336 3.98766C12.8991 4.30494 13.5073 4.91329 13.8244 5.67891C13.9566 5.99766 14.0114 6.33422 14.0372 6.71484C14.0625 7.08469 14.0625 7.53937 14.0625 8.10281V9.70969C14.0625 10.2731 14.0625 10.7278 14.0372 11.0981C14.0114 11.4783 13.9566 11.8148 13.8244 12.1336C13.5072 12.8991 12.8991 13.5072 12.1336 13.8244C11.8148 13.9566 11.4783 14.0114 11.0977 14.0372C10.7278 14.0625 10.2731 14.0625 9.70969 14.0625H8.10281C7.53937 14.0625 7.08469 14.0625 6.71438 14.0372C6.33422 14.0114 5.99766 13.9566 5.67891 13.8244C4.91329 13.5073 4.30494 12.8991 3.98766 12.1336C3.85594 11.8148 3.80109 11.4783 3.77531 11.0977C3.75 10.7283 3.75 10.2736 3.75 9.71016V8.10328C3.75 7.53984 3.75 7.08516 3.77531 6.71484C3.80109 6.33469 3.85594 5.99813 3.98766 5.67938C4.30484 4.91367 4.9132 4.30531 5.67891 3.98813C5.99766 3.85641 6.33422 3.80156 6.71484 3.77578C7.08422 3.75 7.53937 3.75 8.10281 3.75ZM6.79969 5.02219C6.48281 5.04375 6.29812 5.08453 6.1575 5.14266C5.92999 5.23688 5.72326 5.37501 5.54913 5.54913C5.37501 5.72326 5.23688 5.92999 5.14266 6.1575C5.08453 6.29812 5.04422 6.48281 5.02219 6.79969C5.00016 7.12219 5.00016 7.53422 5.00016 8.12484V9.68766C5.00016 10.2783 5.00016 10.6908 5.02219 11.0128C5.04375 11.3297 5.08453 11.5144 5.14266 11.655C5.23688 11.8825 5.37501 12.0892 5.54913 12.2634C5.72326 12.4375 5.92999 12.5756 6.1575 12.6698C6.29812 12.728 6.48281 12.7683 6.79969 12.7903C7.12219 12.8123 7.53422 12.8123 8.12484 12.8123H9.68766C10.2783 12.8123 10.6908 12.8123 11.0128 12.7903C11.3297 12.7687 11.5144 12.728 11.655 12.6698C11.8825 12.5756 12.0892 12.4375 12.2634 12.2634C12.4375 12.0892 12.5756 11.8825 12.6698 11.655C12.728 11.5144 12.7683 11.3297 12.7903 11.0128C12.8123 10.6903 12.8123 10.2783 12.8123 9.68766V8.12484C12.8123 7.53422 12.8123 7.12172 12.7903 6.79969C12.7687 6.48281 12.728 6.29812 12.6698 6.1575C12.5756 5.92999 12.4375 5.72326 12.2634 5.54913C12.0892 5.37501 11.8825 5.23688 11.655 5.14266C11.5144 5.08453 11.3297 5.04422 11.0128 5.02219C10.6903 5.00016 10.2783 5.00016 9.68766 5.00016H8.12484C7.53422 5.00016 7.12172 5.00016 6.79969 5.02219Z" fill="#2B3151"/>
<path d="M4.375 20.3123C4.375 19.1474 4.375 18.5652 4.56531 18.1054C4.69099 17.8021 4.87519 17.5265 5.10739 17.2944C5.33959 17.0622 5.61524 16.8781 5.91859 16.7526C6.37797 16.5623 6.96016 16.5623 8.125 16.5623H9.68781C10.8527 16.5623 11.4348 16.5623 11.8942 16.7526C12.1976 16.8781 12.4732 17.0622 12.7054 17.2944C12.9376 17.5265 13.1218 17.8021 13.2475 18.1054C13.4378 18.5648 13.4378 19.1474 13.4378 20.3123V21.8746C13.4378 23.0394 13.4378 23.6221 13.2475 24.0815C12.9936 24.694 12.5068 25.1806 11.8942 25.4343C11.4348 25.6246 10.8527 25.6246 9.68781 25.6246H8.125C6.96016 25.6246 6.37797 25.6246 5.91859 25.4343C5.61524 25.3087 5.33959 25.1246 5.10739 24.8925C4.87519 24.6604 4.69099 24.3848 4.56531 24.0815C4.375 23.6221 4.375 23.0394 4.375 21.8746V20.3123Z" fill="#D0D2E0"/>
<path fill-rule="evenodd" clip-rule="evenodd" d="M8.10281 15.9375H9.70969C10.2731 15.9375 10.7278 15.9375 11.0981 15.9628C11.4783 15.9886 11.8148 16.0434 12.1336 16.1752C12.8992 16.4924 13.5073 17.1008 13.8244 17.8664C13.9566 18.1852 14.0114 18.5217 14.0372 18.9023C14.0625 19.2722 14.0625 19.7269 14.0625 20.2903V21.8972C14.0625 22.4606 14.0625 22.9153 14.0372 23.2856C14.0114 23.6658 13.9566 24.0023 13.8244 24.3211C13.5073 25.0867 12.8992 25.6951 12.1336 26.0123C11.8148 26.1441 11.4783 26.1989 11.0977 26.2247C10.7278 26.25 10.2731 26.25 9.70969 26.25H8.10281C7.53937 26.25 7.08469 26.25 6.71438 26.2247C6.33422 26.1989 5.99766 26.1441 5.67891 26.0123C4.9132 25.6952 4.30484 25.0868 3.98766 24.3211C3.85594 24.0023 3.80109 23.6658 3.77531 23.2852C3.75 22.9158 3.75 22.4611 3.75 21.8977V20.2908C3.75 19.7273 3.75 19.2727 3.77531 18.9023C3.80109 18.5222 3.85594 18.1856 3.98766 17.8669C4.30484 17.1012 4.9132 16.4928 5.67891 16.1756C5.99766 16.0439 6.33422 15.9891 6.71484 15.9633C7.08422 15.9375 7.53937 15.9375 8.10281 15.9375ZM6.79969 17.2097C6.48281 17.2313 6.29812 17.272 6.1575 17.3302C5.92999 17.4244 5.72326 17.5625 5.54913 17.7366C5.37501 17.9108 5.23688 18.1175 5.14266 18.345C5.08453 18.4856 5.04422 18.6703 5.02219 18.9872C5.00016 19.3097 5.00016 19.7217 5.00016 20.3123V21.8752C5.00016 22.4658 5.00016 22.8783 5.02219 23.2003C5.04375 23.5172 5.08453 23.7019 5.14266 23.8425C5.23688 24.07 5.37501 24.2767 5.54913 24.4509C5.72326 24.625 5.92999 24.7631 6.1575 24.8573C6.29812 24.9155 6.48281 24.9558 6.79969 24.9778C7.12219 24.9998 7.53422 24.9998 8.12484 24.9998H9.68766C10.2783 24.9998 10.6908 24.9998 11.0128 24.9778C11.3297 24.9562 11.5144 24.9155 11.655 24.8573C11.8825 24.7631 12.0892 24.625 12.2634 24.4509C12.4375 24.2767 12.5756 24.07 12.6698 23.8425C12.728 23.7019 12.7683 23.5172 12.7903 23.2003C12.8123 22.8778 12.8123 22.4658 12.8123 21.8752V20.3123C12.8123 19.7217 12.8123 19.3092 12.7903 18.9872C12.7687 18.6703 12.728 18.4856 12.6698 18.345C12.5756 18.1175 12.4375 17.9108 12.2634 17.7366C12.0892 17.5625 11.8825 17.4244 11.655 17.3302C11.5144 17.272 11.3297 17.2317 11.0128 17.2097C10.6903 17.1877 10.2783 17.1877 9.68766 17.1877H8.12484C7.53422 17.1877 7.12172 17.1877 6.79969 17.2097Z" fill="#D0D2E0"/>
<path d="M16.5625 8.12476C16.5625 6.95991 16.5625 6.37772 16.7528 5.91788C16.8785 5.61457 17.0627 5.33898 17.2949 5.10687C17.5271 4.87475 17.8027 4.69065 18.1061 4.56507C18.5655 4.37476 19.1477 4.37476 20.3125 4.37476H21.8753C23.0402 4.37476 23.6223 4.37476 24.0817 4.56507C24.3851 4.69065 24.6607 4.87475 24.8929 5.10687C25.1251 5.33898 25.3093 5.61457 25.435 5.91788C25.6253 6.37726 25.6253 6.95991 25.6253 8.12476V9.6871C25.6253 10.8519 25.6253 11.4346 25.435 11.894C25.1811 12.5065 24.6943 12.9931 24.0817 13.2468C23.6223 13.4371 23.0402 13.4371 21.8753 13.4371H20.3125C19.1477 13.4371 18.5655 13.4371 18.1061 13.2468C17.4935 12.9931 17.0067 12.5065 16.7528 11.894C16.5625 11.4346 16.5625 10.8519 16.5625 9.6871V8.12476Z" fill="#D0D2E0"/>
<path fill-rule="evenodd" clip-rule="evenodd" d="M20.2903 3.75H21.8972C22.4606 3.75 22.9153 3.75 23.2856 3.77531C23.6658 3.80109 24.0023 3.85594 24.3211 3.98766C25.0868 4.30484 25.6952 4.9132 26.0123 5.67891C26.1441 5.99766 26.1989 6.33422 26.2247 6.71484C26.25 7.08469 26.25 7.53937 26.25 8.10281V9.70969C26.25 10.2731 26.25 10.7278 26.2247 11.0981C26.1989 11.4783 26.1441 11.8148 26.0123 12.1336C25.6951 12.8992 25.0867 13.5073 24.3211 13.8244C24.0023 13.9566 23.6658 14.0114 23.2852 14.0372C22.9153 14.0625 22.4606 14.0625 21.8972 14.0625H20.2903C19.7269 14.0625 19.2722 14.0625 18.9019 14.0372C18.5217 14.0114 18.1852 13.9566 17.8664 13.8244C17.1008 13.5073 16.4924 12.8992 16.1752 12.1336C16.0434 11.8148 15.9886 11.4783 15.9628 11.0977C15.9375 10.7283 15.9375 10.2736 15.9375 9.71016V8.10328C15.9375 7.53984 15.9375 7.08516 15.9628 6.71484C15.9886 6.33469 16.0434 5.99813 16.1752 5.67938C16.4923 4.91367 17.1007 4.30531 17.8664 3.98813C18.1852 3.85641 18.5217 3.80156 18.9023 3.77578C19.2717 3.75 19.7269 3.75 20.2903 3.75ZM18.9872 5.02219C18.6703 5.04375 18.4856 5.08453 18.345 5.14266C18.1175 5.23688 17.9108 5.37501 17.7366 5.54913C17.5625 5.72326 17.4244 5.92999 17.3302 6.1575C17.272 6.29812 17.2317 6.48281 17.2097 6.79969C17.1877 7.12219 17.1877 7.53422 17.1877 8.12484V9.68766C17.1877 10.2783 17.1877 10.6908 17.2097 11.0128C17.2313 11.3297 17.272 11.5144 17.3302 11.655C17.4244 11.8825 17.5625 12.0892 17.7366 12.2634C17.9108 12.4375 18.1175 12.5756 18.345 12.6698C18.4856 12.728 18.6703 12.7683 18.9872 12.7903C19.3097 12.8123 19.7217 12.8123 20.3123 12.8123H21.8752C22.4658 12.8123 22.8783 12.8123 23.2003 12.7903C23.5172 12.7687 23.7019 12.728 23.8425 12.6698C24.07 12.5756 24.2767 12.4375 24.4509 12.2634C24.625 12.0892 24.7631 11.8825 24.8573 11.655C24.9155 11.5144 24.9558 11.3297 24.9778 11.0128C24.9998 10.6903 24.9998 10.2783 24.9998 9.68766V8.12484C24.9998 7.53422 24.9998 7.12172 24.9778 6.79969C24.9562 6.48281 24.9155 6.29812 24.8573 6.1575C24.7631 5.92999 24.625 5.72326 24.4509 5.54913C24.2767 5.37501 24.07 5.23688 23.8425 5.14266C23.7019 5.08453 23.5172 5.04422 23.2003 5.02219C22.8778 5.00016 22.4658 5.00016 21.8752 5.00016H20.3123C19.7217 5.00016 19.3092 5.00016 18.9872 5.02219Z" fill="#D0D2E0"/>
<path d="M16.5625 20.3123C16.5625 19.1474 16.5625 18.5652 16.7528 18.1054C16.8785 17.8021 17.0627 17.5265 17.2949 17.2944C17.5271 17.0622 17.8027 16.8781 18.1061 16.7526C18.5655 16.5623 19.1477 16.5623 20.3125 16.5623H21.8753C23.0402 16.5623 23.6223 16.5623 24.0817 16.7526C24.3851 16.8781 24.6607 17.0622 24.8929 17.2944C25.1251 17.5265 25.3093 17.8021 25.435 18.1054C25.6253 18.5648 25.6253 19.1474 25.6253 20.3123V21.8746C25.6253 23.0394 25.6253 23.6221 25.435 24.0815C25.1811 24.694 24.6943 25.1806 24.0817 25.4343C23.6223 25.6246 23.0402 25.6246 21.8753 25.6246H20.3125C19.1477 25.6246 18.5655 25.6246 18.1061 25.4343C17.4935 25.1806 17.0067 24.694 16.7528 24.0815C16.5625 23.6221 16.5625 23.0394 16.5625 21.8746V20.3123Z" fill="#2B3151"/>
<path fill-rule="evenodd" clip-rule="evenodd" d="M20.2903 15.9375H21.8972C22.4606 15.9375 22.9153 15.9375 23.2856 15.9628C23.6658 15.9886 24.0023 16.0434 24.3211 16.1752C24.7002 16.3322 25.0448 16.5624 25.3349 16.8526C25.6251 17.1427 25.8553 17.4873 26.0123 17.8664C26.1441 18.1852 26.1989 18.5217 26.2247 18.9023C26.25 19.2722 26.25 19.7269 26.25 20.2903V21.8972C26.25 22.4606 26.25 22.9153 26.2247 23.2856C26.1989 23.6658 26.1441 24.0023 26.0123 24.3211C25.8553 24.7002 25.6251 25.0448 25.3349 25.3349C25.0448 25.6251 24.7002 25.8553 24.3211 26.0123C24.0023 26.1441 23.6658 26.1989 23.2852 26.2247C22.9153 26.25 22.4606 26.25 21.8972 26.25H20.2903C19.7269 26.25 19.2722 26.25 18.9019 26.2247C18.5217 26.1989 18.1852 26.1441 17.8664 26.0123C17.4873 25.8553 17.1427 25.6251 16.8526 25.3349C16.5624 25.0448 16.3322 24.7002 16.1752 24.3211C16.0434 24.0023 15.9886 23.6658 15.9628 23.2852C15.9375 22.9158 15.9375 22.4611 15.9375 21.8977V20.2908C15.9375 19.7273 15.9375 19.2727 15.9628 18.9023C15.9886 18.5222 16.0434 18.1856 16.1752 17.8669C16.3322 17.4877 16.5624 17.1432 16.8526 16.853C17.1427 16.5628 17.4873 16.3327 17.8664 16.1756C18.1852 16.0439 18.5217 15.9891 18.9023 15.9633C19.2717 15.9375 19.7269 15.9375 20.2903 15.9375ZM18.9872 17.2097C18.6703 17.2313 18.4856 17.272 18.345 17.3302C18.1175 17.4244 17.9108 17.5625 17.7366 17.7366C17.5625 17.9108 17.4244 18.1175 17.3302 18.345C17.272 18.4856 17.2317 18.6703 17.2097 18.9872C17.1877 19.3097 17.1877 19.7217 17.1877 20.3123V21.8752C17.1877 22.4658 17.1877 22.8783 17.2097 23.2003C17.2313 23.5172 17.272 23.7019 17.3302 23.8425C17.4244 24.07 17.5625 24.2767 17.7366 24.4509C17.9108 24.625 18.1175 24.7631 18.345 24.8573C18.4856 24.9155 18.6703 24.9558 18.9872 24.9778C19.3097 24.9998 19.7217 24.9998 20.3123 24.9998H21.8752C22.4658 24.9998 22.8783 24.9998 23.2003 24.9778C23.5172 24.9562 23.7019 24.9155 23.8425 24.8573C24.07 24.7631 24.2767 24.625 24.4509 24.4509C24.625 24.2767 24.7631 24.07 24.8573 23.8425C24.9155 23.7019 24.9558 23.5172 24.9778 23.2003C24.9998 22.8778 24.9998 22.4658 24.9998 21.8752V20.3123C24.9998 19.7217 24.9998 19.3092 24.9778 18.9872C24.9562 18.6703 24.9155 18.4856 24.8573 18.345C24.7631 18.1175 24.625 17.9108 24.4509 17.7366C24.2767 17.5625 24.07 17.4244 23.8425 17.3302C23.7019 17.272 23.5172 17.2317 23.2003 17.2097C22.8778 17.1877 22.4658 17.1877 21.8752 17.1877H20.3123C19.7217 17.1877 19.3092 17.1877 18.9872 17.2097Z" fill="#2B3151"/>
</svg>
