<svg width="12" height="17" viewBox="0 0 12 17" fill="none" xmlns="http://www.w3.org/2000/svg">
<path d="M11.0542 4.38915C11.0425 4.38915 11.0248 4.38915 11.0071 4.38915C7.88891 4.0009 4.77664 3.85439 1.69382 4.24264L0.491349 4.38915C0.243782 4.41845 0.0256867 4.19869 0.00210885 3.89101C-0.021469 3.58334 0.155365 3.31962 0.397038 3.29032L1.59951 3.14381C4.73538 2.74823 7.91249 2.90206 11.0955 3.29032C11.3372 3.31962 11.514 3.59067 11.4904 3.89101C11.4727 4.17671 11.2782 4.38915 11.0542 4.38915Z" fill="white"/>
<path d="M3.68666 3.64952C3.66308 3.64952 3.63951 3.64952 3.61003 3.64219C3.37426 3.59092 3.20921 3.30522 3.25047 3.0122L3.38015 2.05255C3.47446 1.3493 3.60414 0.375 4.97753 0.375H6.52187C7.90118 0.375 8.03086 1.38593 8.11927 2.05988L8.24895 3.0122C8.29021 3.31254 8.12517 3.59824 7.88939 3.64219C7.64772 3.69347 7.41783 3.48836 7.38247 3.19534L7.25279 2.24301C7.17026 1.60569 7.15258 1.48116 6.52777 1.48116H4.98342C4.35863 1.48116 4.34684 1.58372 4.25843 2.23569L4.12285 3.18801C4.08749 3.45906 3.89886 3.64952 3.68666 3.64952Z" fill="white"/>
<path d="M7.6426 16.1252H3.85835C1.80118 16.1252 1.71866 14.7113 1.65382 13.5685L1.27068 6.19169C1.253 5.89134 1.44162 5.62763 1.68329 5.60565C1.93086 5.591 2.13717 5.81809 2.15485 6.11844L2.53799 13.4953C2.60283 14.6088 2.62641 15.0263 3.85835 15.0263H7.6426C8.88043 15.0263 8.90401 14.6088 8.96296 13.4953L9.3461 6.11844C9.36378 5.81809 9.57598 5.591 9.81765 5.60565C10.0593 5.62763 10.2479 5.88401 10.2303 6.19169L9.84713 13.5685C9.78229 14.7113 9.69976 16.1252 7.6426 16.1252Z" fill="white"/>
<path d="M6.72722 12.0959H4.76436C4.52268 12.0959 4.32227 11.8468 4.32227 11.5465C4.32227 11.2461 4.52268 10.9971 4.76436 10.9971H6.72722C6.96889 10.9971 7.1693 11.2461 7.1693 11.5465C7.1693 11.8468 6.96889 12.0959 6.72722 12.0959Z" fill="white"/>
<path d="M7.2233 9.16573H4.27607C4.0344 9.16573 3.83398 8.91666 3.83398 8.61631C3.83398 8.31596 4.0344 8.06689 4.27607 8.06689H7.2233C7.46497 8.06689 7.66538 8.31596 7.66538 8.61631C7.66538 8.91666 7.46497 9.16573 7.2233 9.16573Z" fill="white"/>
</svg>
