<svg width="23" height="24" viewBox="0 0 23 24" fill="none" xmlns="http://www.w3.org/2000/svg">
<path d="M3.88035 20.3649C3.16086 20.3649 2.48855 20.1285 2.00496 19.6895C1.39163 19.138 1.09676 18.3051 1.20291 17.4047L1.63932 13.758C1.72189 13.0715 2.1583 12.1598 2.66548 11.6646L12.3491 1.88387C14.767 -0.558506 17.2911 -0.626037 19.8506 1.68128C22.4101 3.98859 22.4809 6.3972 20.0629 8.83958L10.3793 18.6203C9.88395 19.1268 8.96394 19.5995 8.24445 19.7121L4.4465 20.3311C4.24599 20.3423 4.06906 20.3649 3.88035 20.3649ZM16.1352 1.67002C15.227 1.67002 14.4368 2.21027 13.6347 3.02064L3.95112 12.8127C3.71522 13.0491 3.44394 13.6118 3.39676 13.9382L2.96035 17.5848C2.91317 17.9562 3.00753 18.2601 3.21983 18.4514C3.43214 18.6428 3.7506 18.7103 4.13983 18.654L7.93778 18.0351C8.27984 17.9788 8.84599 17.6861 9.08189 17.4497L18.7655 7.66904C20.2281 6.18335 20.7588 4.81022 18.624 2.89684C17.6804 2.03019 16.8665 1.67002 16.1352 1.67002Z" fill="#9D9D9D"/>
<path d="M17.7988 10.7193C17.7752 10.7193 17.7398 10.7193 17.7162 10.7193C14.0362 10.3704 11.0757 7.70298 10.5095 4.21387C10.4388 3.75241 10.769 3.32471 11.2526 3.24592C11.7362 3.17839 12.1844 3.49354 12.267 3.955C12.7152 6.67875 15.027 8.77222 17.9049 9.04234C18.3885 9.08736 18.7424 9.5038 18.6952 9.96521C18.6362 10.3929 18.247 10.7193 17.7988 10.7193Z" fill="#9D9D9D"/>
<path d="M22.1154 24.0003H0.884615C0.401026 24.0003 0 23.6176 0 23.1562C0 22.6947 0.401026 22.312 0.884615 22.312H22.1154C22.599 22.312 23 22.6947 23 23.1562C23 23.6176 22.599 24.0003 22.1154 24.0003Z" fill="#9D9D9D"/>
</svg>
