<svg width="23" height="24" viewBox="0 0 23 24" fill="none" xmlns="http://www.w3.org/2000/svg">
<path d="M22.1228 6.11717C22.0992 6.11717 22.0639 6.11717 22.0285 6.11717C15.7881 5.52555 9.55948 5.30229 3.38984 5.89392L0.983336 6.11717C0.48788 6.16182 0.0514067 5.82694 0.00422044 5.35811C-0.0429659 4.88927 0.310932 4.48741 0.794591 4.44276L3.20109 4.21951C9.47691 3.61672 15.8353 3.85114 22.2054 4.44276C22.6891 4.48741 23.043 4.90043 22.9958 5.35811C22.9604 5.79345 22.5711 6.11717 22.1228 6.11717Z" fill="#F50000"/>
<path d="M7.37781 4.98975C7.33062 4.98975 7.28343 4.98975 7.22445 4.97858C6.75259 4.90044 6.42228 4.4651 6.50486 4.01859L6.76438 2.55627C6.95313 1.48464 7.21265 0 9.96121 0H13.0519C15.8123 0 16.0718 1.54046 16.2488 2.56743L16.5083 4.01859C16.5909 4.47626 16.2606 4.91161 15.7887 4.97858C15.3051 5.05672 14.845 4.74416 14.7742 4.29766L14.5147 2.8465C14.3495 1.87534 14.3141 1.68557 13.0637 1.68557H9.97301C8.72262 1.68557 8.69902 1.84185 8.52207 2.83534L8.25075 4.28649C8.17997 4.69951 7.80248 4.98975 7.37781 4.98975Z" fill="#F50000"/>
<path d="M15.2935 24H7.72006C3.60305 24 3.4379 21.8456 3.30814 20.1042L2.54136 8.86327C2.50597 8.4056 2.88346 8.00375 3.36712 7.97026C3.86258 7.94793 4.27546 8.29398 4.31085 8.75165L5.07763 19.9926C5.20739 21.6893 5.25457 22.3256 7.72006 22.3256H15.2935C17.7708 22.3256 17.8179 21.6893 17.9359 19.9926L18.7027 8.75165C18.7381 8.29398 19.1627 7.94793 19.6464 7.97026C20.1301 8.00375 20.5076 8.39443 20.4722 8.86327L19.7054 20.1042C19.5756 21.8456 19.4105 24 15.2935 24Z" fill="#F50000"/>
<path d="M13.4634 17.8604H9.53516C9.05147 17.8604 8.65039 17.4809 8.65039 17.0232C8.65039 16.5656 9.05147 16.186 9.53516 16.186H13.4634C13.9471 16.186 14.3482 16.5656 14.3482 17.0232C14.3482 17.4809 13.9471 17.8604 13.4634 17.8604Z" fill="#F50000"/>
<path d="M14.4549 13.3951H8.55662C8.07296 13.3951 7.67188 13.0156 7.67188 12.5579C7.67188 12.1002 8.07296 11.7207 8.55662 11.7207H14.4549C14.9386 11.7207 15.3396 12.1002 15.3396 12.5579C15.3396 13.0156 14.9386 13.3951 14.4549 13.3951Z" fill="#F50000"/>
</svg>
