<svg width="17" height="16" viewBox="0 0 17 16" fill="none" xmlns="http://www.w3.org/2000/svg">
<path d="M6.2444 4C6.2444 3.86739 6.29702 3.74021 6.3907 3.64645C6.48437 3.55268 6.61141 3.5 6.74388 3.5H14.2361C14.3685 3.5 14.4956 3.55268 14.5893 3.64645C14.6829 3.74021 14.7355 3.86739 14.7355 4C14.7355 4.13261 14.6829 4.25979 14.5893 4.35355C14.4956 4.44732 14.3685 4.5 14.2361 4.5H6.74388C6.61141 4.5 6.48437 4.44732 6.3907 4.35355C6.29702 4.25979 6.2444 4.13261 6.2444 4ZM14.2361 7.5H6.74388C6.61141 7.5 6.48437 7.55268 6.3907 7.64645C6.29702 7.74021 6.2444 7.86739 6.2444 8C6.2444 8.13261 6.29702 8.25979 6.3907 8.35355C6.48437 8.44732 6.61141 8.5 6.74388 8.5H14.2361C14.3685 8.5 14.4956 8.44732 14.5893 8.35355C14.6829 8.25979 14.7355 8.13261 14.7355 8C14.7355 7.86739 14.6829 7.74021 14.5893 7.64645C14.4956 7.55268 14.3685 7.5 14.2361 7.5ZM14.2361 11.5H6.74388C6.61141 11.5 6.48437 11.5527 6.3907 11.6464C6.29702 11.7402 6.2444 11.8674 6.2444 12C6.2444 12.1326 6.29702 12.2598 6.3907 12.3536C6.48437 12.4473 6.61141 12.5 6.74388 12.5H14.2361C14.3685 12.5 14.4956 12.4473 14.5893 12.3536C14.6829 12.2598 14.7355 12.1326 14.7355 12C14.7355 11.8674 14.6829 11.7402 14.5893 11.6464C14.4956 11.5527 14.3685 11.5 14.2361 11.5ZM4.24648 3.5H3.24753C3.11506 3.5 2.98801 3.55268 2.89434 3.64645C2.80067 3.74021 2.74805 3.86739 2.74805 4C2.74805 4.13261 2.80067 4.25979 2.89434 4.35355C2.98801 4.44732 3.11506 4.5 3.24753 4.5H4.24648C4.37895 4.5 4.506 4.44732 4.59967 4.35355C4.69334 4.25979 4.74596 4.13261 4.74596 4C4.74596 3.86739 4.69334 3.74021 4.59967 3.64645C4.506 3.55268 4.37895 3.5 4.24648 3.5ZM4.24648 7.5H3.24753C3.11506 7.5 2.98801 7.55268 2.89434 7.64645C2.80067 7.74021 2.74805 7.86739 2.74805 8C2.74805 8.13261 2.80067 8.25979 2.89434 8.35355C2.98801 8.44732 3.11506 8.5 3.24753 8.5H4.24648C4.37895 8.5 4.506 8.44732 4.59967 8.35355C4.69334 8.25979 4.74596 8.13261 4.74596 8C4.74596 7.86739 4.69334 7.74021 4.59967 7.64645C4.506 7.55268 4.37895 7.5 4.24648 7.5ZM4.24648 11.5H3.24753C3.11506 11.5 2.98801 11.5527 2.89434 11.6464C2.80067 11.7402 2.74805 11.8674 2.74805 12C2.74805 12.1326 2.80067 12.2598 2.89434 12.3536C2.98801 12.4473 3.11506 12.5 3.24753 12.5H4.24648C4.37895 12.5 4.506 12.4473 4.59967 12.3536C4.69334 12.2598 4.74596 12.1326 4.74596 12C4.74596 11.8674 4.69334 11.7402 4.59967 11.6464C4.506 11.5527 4.37895 11.5 4.24648 11.5Z" fill="black"/>
</svg>
